<?xml version="1.0" standalone="no"?>
<!DOCTYPE svg PUBLIC "-//W3C//DTD SVG 20010904//EN"
 "http://www.w3.org/TR/2001/REC-SVG-20010904/DTD/svg10.dtd">
<svg version="1.0" xmlns="http://www.w3.org/2000/svg"
 width="7973.000000pt" height="7973.000000pt" viewBox="0 0 7973.000000 7973.000000"
 preserveAspectRatio="xMidYMid meet">

<g transform="translate(0.000000,7973.000000) scale(0.100000,-0.100000)"
fill="#000000" stroke="none">
<path d="M24969 46198 c-170 -170 -205 -904 -50 -1052 26 -25 42 -28 306 -61
3634 -456 6962 -1861 9440 -3987 1819 -1559 3146 -3484 3849 -5581 115 -343
234 -777 326 -1188 27 -121 61 -169 120 -169 118 0 210 258 210 592 0 168 -9
238 -66 493 -564 2541 -2049 4965 -4189 6839 -94 82 -183 160 -200 174 -76 67
-545 438 -669 531 -847 632 -1700 1152 -2660 1621 -1886 924 -3888 1515 -6065
1790 -303 39 -311 39 -352 -2z"/>
<path d="M55230 46219 c-36 -5 -153 -20 -260 -34 -3194 -414 -6259 -1624
-8620 -3404 -318 -239 -824 -655 -1025 -841 -27 -26 -111 -102 -185 -170 -191
-176 -607 -594 -794 -800 -1102 -1209 -1936 -2524 -2514 -3962 -204 -506 -379
-1047 -511 -1573 -166 -664 -194 -929 -119 -1144 28 -80 82 -143 121 -143 75
0 136 118 191 369 246 1124 704 2268 1322 3300 449 750 979 1453 1614 2138
108 118 638 644 765 762 98 90 293 263 425 377 1123 969 2543 1857 4023 2518
1661 741 3493 1240 5426 1478 282 34 289 37 340 143 65 132 97 341 88 572 -8
206 -43 351 -96 404 -23 23 -72 26 -191 10z"/>
<path d="M23990 43734 c-668 -37 -1161 -96 -1760 -208 -158 -30 -207 -35 -340
-35 -85 -1 -191 -3 -235 -6 -44 -2 -129 -7 -190 -10 -376 -19 -975 -72 -991
-88 -2 -2 9 -139 26 -303 315 -3096 1039 -5664 2241 -7944 1366 -2593 2954
-4259 5114 -5366 636 -326 1090 -501 1710 -659 1017 -261 2218 -352 3395 -259
1797 141 3454 677 4575 1479 130 93 282 211 362 282 l32 28 -20 210 c-191
2040 -799 4025 -1781 5820 -1202 2195 -2890 3983 -4908 5197 -1090 657 -2324
1171 -3546 1477 -785 197 -1486 307 -2364 372 -139 10 -1185 20 -1320 13z"/>
<path d="M54665 43734 c-38 -2 -176 -11 -305 -19 -2050 -135 -4073 -772 -5851
-1840 -716 -430 -1400 -941 -2049 -1529 -223 -202 -698 -679 -902 -906 -655
-729 -1205 -1476 -1710 -2325 -352 -591 -737 -1368 -994 -2005 -555 -1376
-897 -2771 -1034 -4220 -11 -118 -22 -222 -25 -230 -6 -24 246 -226 493 -394
1369 -934 3465 -1477 5562 -1443 1052 18 1980 163 2833 443 476 157 924 358
1497 672 1160 637 2159 1466 3054 2537 952 1139 1856 2688 2511 4305 717 1767
1195 3748 1444 5985 47 423 65 614 59 620 -23 24 -1041 102 -1418 110 -144 2
-203 9 -335 34 -459 88 -906 145 -1510 192 -133 10 -1172 20 -1320 13z"/>
<path d="M41106 27301 c-126 -389 -263 -750 -471 -1236 -331 -774 -408 -1049
-406 -1455 0 -377 104 -692 305 -925 128 -149 277 -249 461 -308 124 -40 199
-51 350 -50 116 1 157 5 240 27 423 109 750 484 855 981 27 129 37 398 21 545
-64 561 -366 1227 -875 1929 -103 142 -275 365 -381 492 l-72 87 -27 -87z"/>
<path d="M38433 27193 c-386 -484 -651 -889 -849 -1298 -333 -690 -413 -1247
-249 -1742 131 -392 427 -695 775 -792 178 -49 393 -49 570 0 667 184 975 944
740 1824 -62 232 -136 430 -330 880 -186 432 -382 945 -466 1223 -16 50 -31
92 -35 92 -4 0 -74 -84 -156 -187z"/>
<path d="M39125 15509 c-1672 -71 -2997 -365 -3342 -742 -61 -67 -85 -116 -91
-182 -8 -98 37 -185 144 -276 590 -502 2900 -808 5084 -674 1539 95 2715 379
3029 732 54 61 91 141 91 198 0 135 -140 280 -387 404 -565 282 -1711 483
-3083 541 -266 11 -1173 11 -1445 -1z"/>
</g>
</svg>
